<svg id="Capa_1" data-name="Capa 1" xmlns="http://www.w3.org/2000/svg" xmlns:xlink="http://www.w3.org/1999/xlink" viewBox="0 0 24 24"><defs><linearGradient id="Degradado_sin_nombre_5" x1="4.5" y1="12" x2="19.5" y2="12" gradientUnits="userSpaceOnUse"><stop offset="0" stop-color="#f7931e"/><stop offset="1" stop-color="#f15a24"/></linearGradient></defs><title>autumn</title><circle cx="12" cy="12" r="12" style="fill:#c6262e"/><g style="opacity:0.2"><path d="M12,1A11,11,0,1,1,1,12,11,11,0,0,1,12,1m0-1A12,12,0,1,0,24,12,12,12,0,0,0,12,0Z" style="fill:#fff"/></g><g style="opacity:0.4"><path d="M12,.5A11.5,11.5,0,1,1,.5,12,11.51,11.51,0,0,1,12,.5M12,0A12,12,0,1,0,24,12,12,12,0,0,0,12,0Z"/></g><path d="M8.79,15.21a4.26,4.26,0,0,1-1.72-.42A5.3,5.3,0,0,1,4.5,10.93a8.1,8.1,0,0,1,1.29.43,6.12,6.12,0,0,1,.85.43,8.11,8.11,0,0,1,0-2.15,8.54,8.54,0,0,1,3-5.14,15.41,15.41,0,0,1,.86,2.57,16.46,16.46,0,0,1,.43,3,6.52,6.52,0,0,1,.86-1.28,9.31,9.31,0,0,1,6.42-3,9.24,9.24,0,0,1-2.57,6,8,8,0,0,1-1.71,1.28,9.34,9.34,0,0,1,3,.43,9,9,0,0,1,2.57,1.29,12.56,12.56,0,0,1-4.29,2.14,12.62,12.62,0,0,1-3,.43,6.12,6.12,0,0,1,.43.85,8.1,8.1,0,0,1,.43,1.29,5.3,5.3,0,0,1-3.86-2.57A4.26,4.26,0,0,1,8.79,15.21Z" style="stroke:#000;stroke-miterlimit:10;stroke-opacity:0.2;fill:url(#Degradado_sin_nombre_5)"/><polygon points="5.64 17.5 6.5 18.36 10.36 13.64 5.64 17.5" style="fill:#542c12"/></svg>