<svg id="Capa_1" data-name="Capa 1" xmlns="http://www.w3.org/2000/svg" xmlns:xlink="http://www.w3.org/1999/xlink" viewBox="0 0 24 24"><defs><linearGradient id="Degradado_sin_nombre_19" x1="3.25" y1="12" x2="20.75" y2="12" gradientUnits="userSpaceOnUse"><stop offset="0" stop-color="#f7931e"/><stop offset="1" stop-color="#ed1e79"/></linearGradient><linearGradient id="Degradado_sin_nombre_17" x1="8.55" y1="12" x2="15.45" y2="12" gradientUnits="userSpaceOnUse"><stop offset="0" stop-color="#fcee21"/><stop offset="1" stop-color="#f7931e"/></linearGradient></defs><title>spring</title><circle cx="12" cy="12" r="12" style="fill:#68b723"/><g style="opacity:0.2"><path d="M12,1A11,11,0,1,1,1,12,11,11,0,0,1,12,1m0-1A12,12,0,1,0,24,12,12,12,0,0,0,12,0Z" style="fill:#f2f2f2"/></g><g style="opacity:0.4"><path d="M12,.5A11.5,11.5,0,1,1,.5,12,11.51,11.51,0,0,1,12,.5M12,0A12,12,0,1,0,24,12,12,12,0,0,0,12,0Z"/></g><path d="M16.38,7.74a4.37,4.37,0,0,0-8.73-.45h0a4.49,4.49,0,0,0,0,9,4.37,4.37,0,0,0,8.72.45h0a4.49,4.49,0,0,0,0-9Z" style="stroke:#000;stroke-miterlimit:10;stroke-opacity:0.2;fill:url(#Degradado_sin_nombre_19)"/><circle cx="12" cy="12" r="3.45" style="stroke:#000;stroke-miterlimit:10;stroke-opacity:0.2;fill:url(#Degradado_sin_nombre_17)"/></svg>