<svg id="Capa_1" data-name="Capa 1" xmlns="http://www.w3.org/2000/svg" xmlns:xlink="http://www.w3.org/1999/xlink" viewBox="0 0 24 24"><defs><radialGradient id="Degradado_sin_nombre_23" cx="-2.44" cy="12.15" r="6.91" gradientTransform="translate(13.77 3.2) scale(0.72)" gradientUnits="userSpaceOnUse"><stop offset="0" stop-color="#f2f2f2"/><stop offset="1" stop-color="#ffffc6"/></radialGradient></defs><title>summer</title><circle cx="12" cy="12" r="12" style="fill:#f9c440"/><g style="opacity:0.2"><path d="M12,1A11,11,0,1,1,1,12,11,11,0,0,1,12,1m0-1A12,12,0,1,0,24,12,12,12,0,0,0,12,0Z" style="fill:#f2f2f2"/></g><g style="opacity:0.4"><path d="M12,.5A11.5,11.5,0,1,1,.5,12,11.51,11.51,0,0,1,12,.5M12,0A12,12,0,1,0,24,12,12,12,0,0,0,12,0Z"/></g><circle cx="12" cy="12" r="5" style="stroke:#000;stroke-miterlimit:10;stroke-opacity:0.2;fill:url(#Degradado_sin_nombre_23)"/><polygon points="12 2 11 5.5 13 5.5 12 2" style="fill:#f7931e"/><g style="opacity:0.2"><path d="M12,2l1,3.5H11L12,2m0-.25a.25.25,0,0,0-.24.18l-1,3.5a.24.24,0,0,0,0,.22.26.26,0,0,0,.2.1h2a.26.26,0,0,0,.2-.1.24.24,0,0,0,0-.22l-1-3.5A.25.25,0,0,0,12,1.75Z"/></g><polygon points="12 22 13 18.5 11 18.5 12 22" style="fill:#f7931e"/><g style="opacity:0.2"><path d="M13,18.5h0m0,0L12,22l-1-3.5h2m0-.25H11a.26.26,0,0,0-.2.1.24.24,0,0,0,0,.22l1,3.5a.25.25,0,0,0,.48,0l1-3.47a.16.16,0,0,0,0-.1.25.25,0,0,0-.24-.25Zm0,.5h0Z"/></g><polygon points="22 12 18.5 11 18.5 13 22 12" style="fill:#f7931e"/><g style="opacity:0.2"><path d="M18.5,11,22,12l-3.5,1V11m0-.25a.27.27,0,0,0-.15.05.26.26,0,0,0-.1.2v2a.26.26,0,0,0,.1.2.27.27,0,0,0,.15.05h.07l3.5-1a.25.25,0,0,0,0-.48l-3.5-1Z"/></g><polygon points="2 12 5.5 13 5.5 11 2 12" style="fill:#f7931e"/><g style="opacity:0.2"><path d="M5.5,11v2L2,12l3.5-1m0-.25H5.43l-3.5,1a.25.25,0,0,0,0,.48l3.5,1H5.5a.27.27,0,0,0,.15-.05.26.26,0,0,0,.1-.2V11a.26.26,0,0,0-.1-.2.27.27,0,0,0-.15-.05Z"/></g><polygon points="4.82 4.91 6.59 8.09 8 6.68 4.82 4.91" style="fill:#f7931e"/><g style="opacity:0.2"><path d="M4.82,4.91,8,6.68,6.59,8.09,4.82,4.91m0-.25a.24.24,0,0,0-.18.07.26.26,0,0,0,0,.3L6.37,8.21a.24.24,0,0,0,.18.13h0a.26.26,0,0,0,.17-.07L8.18,6.85a.26.26,0,0,0,.07-.21.24.24,0,0,0-.13-.18L4.94,4.69a.27.27,0,0,0-.12,0Z"/></g><polygon points="19.59 19.09 17.82 15.91 16.41 17.32 19.59 19.09" style="fill:#f7931e"/><g style="opacity:0.2"><path d="M17.82,15.91l1.77,3.18-3.18-1.77,1.41-1.41m0-.25a.26.26,0,0,0-.17.07l-1.42,1.42a.26.26,0,0,0-.07.21.24.24,0,0,0,.13.18l3.18,1.77a.27.27,0,0,0,.12,0,.24.24,0,0,0,.18-.07.26.26,0,0,0,0-.3L18,15.79a.24.24,0,0,0-.18-.13Z"/></g><polygon points="19.59 5.41 16.41 7.18 17.82 8.59 19.59 5.41" style="fill:#f7931e"/><g style="opacity:0.2"><path d="M19.59,5.41h0m0,0L17.82,8.59,16.41,7.18l3.18-1.77m0-.25h0a.17.17,0,0,0-.1,0L16.29,7a.24.24,0,0,0-.13.18.26.26,0,0,0,.07.21l1.42,1.42a.26.26,0,0,0,.17.07h0A.24.24,0,0,0,18,8.71L19.8,5.55a.23.23,0,0,0,0-.14.25.25,0,0,0-.24-.25Zm0,.5h0Z"/></g><polygon points="4.41 18.59 7.59 16.82 6.18 15.41 4.41 18.59" style="fill:#f7931e"/><g style="opacity:0.2"><path d="M6.18,15.41l1.41,1.41L4.41,18.59l1.77-3.18m0-.25h0a.24.24,0,0,0-.18.13L4.19,18.47a.26.26,0,0,0,0,.3.24.24,0,0,0,.18.07.27.27,0,0,0,.12,0L7.71,17a.24.24,0,0,0,.13-.18.26.26,0,0,0-.07-.21L6.35,15.23a.26.26,0,0,0-.17-.07Z"/></g></svg>