<svg id="Capa_1" data-name="Capa 1" xmlns="http://www.w3.org/2000/svg" xmlns:xlink="http://www.w3.org/1999/xlink" viewBox="0 0 24 24"><defs><radialGradient id="Degradado_sin_nombre_42" cx="-12" cy="12" r="17.02" gradientTransform="translate(18 6) scale(0.5)" gradientUnits="userSpaceOnUse"><stop offset="0" stop-color="#f2f2f2"/><stop offset="1" stop-color="#7cf8f8"/></radialGradient></defs><title>winter</title><circle cx="12" cy="12" r="12" style="fill:#3689e6"/><g style="opacity:0.2"><path d="M12,1A11,11,0,1,1,1,12,11,11,0,0,1,12,1m0-1A12,12,0,1,0,24,12,12,12,0,0,0,12,0Z" style="fill:#fff"/></g><g style="opacity:0.4"><path d="M12,.5A11.5,11.5,0,1,1,.5,12,11.51,11.51,0,0,1,12,.5M12,0A12,12,0,1,0,24,12,12,12,0,0,0,12,0Z"/></g><path d="M19.94,16.18l-1.73-1L19.76,14a.38.38,0,0,0,.07-.53.37.37,0,0,0-.52-.07l-1.4,1.05V13.21a.38.38,0,0,0-.38-.38.37.37,0,0,0-.37.38v1.35l-3.77-2.18H15.5a.37.37,0,0,0,.37-.38.36.36,0,0,0-.37-.37H13.39l3.77-2.19v1.77a.36.36,0,0,0,.37.37.37.37,0,0,0,.38-.37V9.32l1.45.72a.35.35,0,0,0,.17,0,.38.38,0,0,0,.34-.2.39.39,0,0,0-.17-.51l-1.31-.65,1.55-.9a.37.37,0,1,0-.38-.64l-1.65,1V6.21a.38.38,0,0,0-.38-.38.37.37,0,0,0-.37.38V8.1L15.7,7.37a.38.38,0,0,0-.5.17.36.36,0,0,0,.16.5l1.46.73L13.1,10.93l1.22-2a.38.38,0,1,0-.64-.4l-1.31,2.12V6.13L13.8,7a.46.46,0,0,0,.2,0,.37.37,0,0,0,.2-.69l-1.49-.93,1.49-.93A.38.38,0,0,0,14.32,4a.37.37,0,0,0-.52-.12l-1.43.89V3.5A.36.36,0,0,0,12,3.13a.37.37,0,0,0-.38.37V4.78L10.2,3.89A.37.37,0,0,0,9.68,4a.38.38,0,0,0,.12.52l1.49.93L9.8,6.39a.37.37,0,0,0,.2.69.46.46,0,0,0,.2,0l1.42-.9v4.54l-1.3-2.12a.38.38,0,0,0-.64.4l1.22,2-3.53-2L8.73,8a.38.38,0,0,0-.4-.64l-1.42.89V6.21a.38.38,0,0,0-.38-.38.37.37,0,0,0-.37.38v2l-1.72-1a.37.37,0,1,0-.38.64L5.92,8.9l-1.59,1a.37.37,0,0,0,.2.69.46.46,0,0,0,.2-.05l1.43-.9v1.58a.36.36,0,0,0,.37.37.37.37,0,0,0,.38-.37V9.48l3.7,2.15H8.5a.37.37,0,0,0-.38.37.38.38,0,0,0,.38.38h2.11l-3.7,2.14V13.21a.38.38,0,0,0-.38-.38.37.37,0,0,0-.37.38v1.25l-1.4-1.05a.38.38,0,1,0-.45.6l1.52,1.14-1.77,1a.36.36,0,0,0-.13.51.37.37,0,0,0,.32.19.35.35,0,0,0,.19-.06l1.72-1v1.88a.36.36,0,0,0,.37.37.37.37,0,0,0,.38-.37V16L8.31,17a.34.34,0,0,0,.22.07.36.36,0,0,0,.3-.15.37.37,0,0,0-.07-.52L7.18,15.23l3.72-2.16-1.22,2a.38.38,0,0,0,.12.52.36.36,0,0,0,.2.06.38.38,0,0,0,.32-.18l1.3-2.12v4.45l-1.42-.89a.37.37,0,0,0-.52.12.38.38,0,0,0,.12.52l1.49.93-1.49.93a.37.37,0,0,0,.2.69.46.46,0,0,0,.2,0l1.42-.9V20.5a.38.38,0,0,0,.38.38.37.37,0,0,0,.37-.38V19.13l1.43.9a.46.46,0,0,0,.2,0,.37.37,0,0,0,.2-.69l-1.49-.93,1.49-.93a.38.38,0,0,0,.12-.52.37.37,0,0,0-.52-.12l-1.43.89V13.33l1.31,2.12a.38.38,0,0,0,.32.18.36.36,0,0,0,.2-.06.38.38,0,0,0,.12-.52l-1.22-2,3.75,2.18-1.54,1.16a.37.37,0,0,0,.22.67.39.39,0,0,0,.23-.07L17.16,16v1.75a.36.36,0,0,0,.37.37.37.37,0,0,0,.38-.37V15.86l1.65,1a.35.35,0,0,0,.19.06.37.37,0,0,0,.32-.19A.36.36,0,0,0,19.94,16.18Z" style="stroke:#000;stroke-miterlimit:10;stroke-opacity:0.2;fill:url(#Degradado_sin_nombre_42)"/></svg>