<svg id="Capa_1" data-name="Capa 1" xmlns="http://www.w3.org/2000/svg" xmlns:xlink="http://www.w3.org/1999/xlink" viewBox="0 0 24 24"><defs><linearGradient id="Degradado_sin_nombre_31" x1="11.96" y1="22.43" x2="11.96" y2="21" gradientUnits="userSpaceOnUse"><stop offset="0" stop-color="#29abe2"/><stop offset="1" stop-color="#0071bc"/></linearGradient><linearGradient id="Degradado_sin_nombre_369" x1="11.89" y1="21.06" x2="11.89" y2="19.21" gradientUnits="userSpaceOnUse"><stop offset="0" stop-color="#fbb03b"/><stop offset="1" stop-color="#ed1c24"/></linearGradient><linearGradient id="Degradado_sin_nombre_345" x1="11.96" y1="19.62" x2="11.96" y2="18.11" gradientUnits="userSpaceOnUse"><stop offset="0" stop-color="#ed1e79"/><stop offset="1" stop-color="#d4145a"/></linearGradient><linearGradient id="Degradado_sin_nombre_17" x1="12" y1="6.46" x2="12" y2="18.08" gradientUnits="userSpaceOnUse"><stop offset="0" stop-color="#e6e6e6"/><stop offset="1" stop-color="#ccc"/></linearGradient><linearGradient id="Degradado_sin_nombre_36" x1="6.54" y1="4.87" x2="6.54" y2="1.75" gradientUnits="userSpaceOnUse"><stop offset="0" stop-color="#333"/><stop offset="1" stop-color="#666"/></linearGradient><linearGradient id="Degradado_sin_nombre_36-2" x1="17.59" y1="4.87" x2="17.59" y2="1.75" xlink:href="#Degradado_sin_nombre_36"/><linearGradient id="Degradado_sin_nombre_365" x1="13.27" y1="13.46" x2="10.98" y2="9.49" gradientUnits="userSpaceOnUse"><stop offset="0" stop-color="#f2f2f2" stop-opacity="0.1"/><stop offset="0.03" stop-color="#cfcfcf" stop-opacity="0.14"/><stop offset="0.19" stop-color="#585858" stop-opacity="0.29"/><stop offset="0.41" stop-color="#131313" stop-opacity="0.38"/><stop offset="1" stop-opacity="0.4"/></linearGradient></defs><title>com.github.calo001.luna_4</title><polygon points="4.66 11.38 18.97 11.38 19.96 22.25 3.95 22.25 4.66 11.38" style="fill:url(#Degradado_sin_nombre_31)"/><g style="opacity:0.4"><path d="M18.52,11.88l.9,9.87H4.48l.64-9.87h13.4m.45-.5H4.66L4,22.25H20L19,11.38Z" style="fill:#f2f2f2"/></g><g style="opacity:0.6"><path d="M18.74,11.63l1,10.37H4.21l.68-10.37H18.74m.23-.25H4.66L4,22.25H20L19,11.38Z"/></g><polygon points="3.87 9.06 19.6 9.06 20.69 21.01 3.09 21.01 3.87 9.06" style="fill:url(#Degradado_sin_nombre_369)"/><g style="opacity:0.4"><path d="M19.14,9.56l1,11H3.62l.72-11h14.8m.46-.5H3.87L3.09,21h17.6l-1.09-12Z" style="fill:#f2f2f2"/></g><g style="opacity:0.6"><path d="M19.37,9.31l1.05,11.45H3.36L4.1,9.31H19.37m.23-.25H3.87L3.09,21h17.6l-1.09-12Z"/></g><polygon points="3.22 6.75 20.35 6.75 21.54 19.76 2.38 19.76 3.22 6.75" style="fill:url(#Degradado_sin_nombre_345)"/><g style="opacity:0.4"><path d="M19.89,7.25l1.1,12H2.91l.78-12h16.2m.46-.5H3.22l-.84,13H21.54l-1.19-13Z" style="fill:#f2f2f2"/></g><g style="opacity:0.6"><path d="M20.12,7l1.14,12.51H2.64L3.46,7H20.12m.23-.25H3.22l-.84,13H21.54l-1.19-13Z"/></g><polygon points="2.07 18.08 3.09 6.46 20.73 6.5 21.93 18.08 2.07 18.08" style="fill:url(#Degradado_sin_nombre_17)"/><path d="M3.32,6.71l17.19,0,1.14,11.08H2.34l1-11.12m-.45-.5L1.8,18.33H22.2L21,6.25l-18.09,0Z" style="fill:#fff"/><g style="opacity:0.6"><path d="M3.09,6.46l17.64,0,1.2,11.58H2.07l1-11.62m-.22-.25L1.8,18.33H22.2L21,6.25l-18.09,0Z"/></g><path d="M20.55,2.69H18.24V4.15a.65.65,0,0,1-1.29,0V2.69H7.18V4.15a.65.65,0,0,1-1.29,0V2.69H3.27a.4.4,0,0,0-.4.41V6.36H21V3.1A.41.41,0,0,0,20.55,2.69Z" style="fill:#991ed3"/><g style="opacity:0.4"><path d="M20.46,3.19V5.86H3.37V3.19h2v1a1.15,1.15,0,0,0,2.29,0v-1h8.77v1a1.15,1.15,0,0,0,2.29,0v-1h1.72m.09-.5H18.24V4.15a.65.65,0,0,1-1.29,0V2.69H7.18V4.15a.65.65,0,0,1-1.29,0V2.69H3.27a.4.4,0,0,0-.4.41V6.36H21V3.1a.41.41,0,0,0-.41-.41Z" style="fill:#fff"/></g><g style="opacity:0.6"><path d="M20.55,2.94a.16.16,0,0,1,.16.16v3H3.12v-3a.16.16,0,0,1,.15-.16H5.64V4.15a.9.9,0,0,0,1.79,0V2.94H16.7V4.15a.9.9,0,0,0,1.79,0V2.94h2.06m0-.25H18.24V4.15a.65.65,0,0,1-1.29,0V2.69H7.18V4.15a.65.65,0,0,1-1.29,0V2.69H3.27a.4.4,0,0,0-.4.41V6.36H21V3.1a.41.41,0,0,0-.41-.41Z"/></g><rect x="5.81" y="1.75" width="1.46" height="3.12" rx="0.67" ry="0.67" style="fill:url(#Degradado_sin_nombre_36)"/><g style="opacity:0.4"><path d="M6.6,2A.42.42,0,0,1,7,2.42V4.19a.42.42,0,0,1-.42.43H6.48a.42.42,0,0,1-.42-.43V2.42A.42.42,0,0,1,6.48,2H6.6m0-.25H6.48a.67.67,0,0,0-.67.67V4.19a.68.68,0,0,0,.67.68H6.6a.68.68,0,0,0,.67-.68V2.42a.67.67,0,0,0-.67-.67Z" style="fill:#f2f2f2"/></g><g style="opacity:0.6"><path d="M6.6,2A.42.42,0,0,1,7,2.42V4.19a.42.42,0,0,1-.42.43H6.48a.42.42,0,0,1-.42-.43V2.42A.42.42,0,0,1,6.48,2H6.6m0-.25H6.48a.67.67,0,0,0-.67.67V4.19a.68.68,0,0,0,.67.68H6.6a.68.68,0,0,0,.67-.68V2.42a.67.67,0,0,0-.67-.67Z"/></g><rect x="16.86" y="1.75" width="1.46" height="3.12" rx="0.67" ry="0.67" style="fill:url(#Degradado_sin_nombre_36-2)"/><g style="opacity:0.6"><path d="M17.65,2a.42.42,0,0,1,.42.42V4.19a.42.42,0,0,1-.42.43h-.12a.42.42,0,0,1-.42-.43V2.42A.42.42,0,0,1,17.53,2h.12m0-.25h-.12a.67.67,0,0,0-.67.67V4.19a.68.68,0,0,0,.67.68h.12a.68.68,0,0,0,.67-.68V2.42a.67.67,0,0,0-.67-.67Z"/></g><line x1="7.77" y1="17.27" x2="8.3" y2="7.27" style="fill:#991ed3;stroke:#b3b3b3;stroke-miterlimit:10;stroke-width:0.5px"/><line x1="16.32" y1="17.27" x2="15.61" y2="7.27" style="fill:#991ed3;stroke:#b3b3b3;stroke-miterlimit:10;stroke-width:0.5px"/><line x1="3.75" y1="9.5" x2="20.25" y2="9.5" style="fill:#991ed3;stroke:#b3b3b3;stroke-miterlimit:10;stroke-width:0.5px"/><line x1="3.25" y1="14.58" x2="20.75" y2="14.58" style="fill:#991ed3;stroke:#b3b3b3;stroke-miterlimit:10;stroke-width:0.5px"/><path d="M8.56,16a1.05,1.05,0,0,1-.87-.45l-1.42-2A1.07,1.07,0,0,1,8,12.32l.81,1.15,7.34-4.94a1.06,1.06,0,0,1,1.48.29,1.08,1.08,0,0,1-.28,1.49L9.16,15.83A1,1,0,0,1,8.56,16Z" style="fill:#39b54a"/><path d="M16.77,8.6h0a.85.85,0,0,1,.68.36.84.84,0,0,1,.12.62.8.8,0,0,1-.34.52L9,15.62a.76.76,0,0,1-.46.14.82.82,0,0,1-.67-.34l-1.42-2a.83.83,0,0,1-.13-.61.75.75,0,0,1,.33-.53.8.8,0,0,1,.47-.15.82.82,0,0,1,.67.34l.82,1.16.14.2.2-.14,7.34-4.94a.83.83,0,0,1,.46-.14m0-.25a1.08,1.08,0,0,0-.6.18L8.83,13.47,8,12.32a1.06,1.06,0,0,0-.88-.45,1,1,0,0,0-.61.19,1.06,1.06,0,0,0-.26,1.49l1.42,2a1.05,1.05,0,0,0,.87.45,1,1,0,0,0,.6-.18l8.21-5.52a1.08,1.08,0,0,0,.28-1.49,1.07,1.07,0,0,0-.88-.47Z" style="fill:url(#Degradado_sin_nombre_365)"/></svg>