<svg id="Capa_1" data-name="Capa 1" xmlns="http://www.w3.org/2000/svg" xmlns:xlink="http://www.w3.org/1999/xlink" viewBox="0 0 24 24"><defs><radialGradient id="Degradado_sin_nombre_2" cx="-181.51" cy="588.97" r="6.98" gradientTransform="matrix(1.56, 0, 0, -0.17, 294.5, 121.53)" gradientUnits="userSpaceOnUse"><stop offset="0"/><stop offset="1" stop-opacity="0"/></radialGradient><radialGradient id="Degradado_sin_nombre_3" cx="-341.98" cy="512.37" r="0.49" gradientTransform="matrix(5.69, 0, 0, -1, 1967.41, 534)" gradientUnits="userSpaceOnUse"><stop offset="0" stop-color="#181818"/><stop offset="1" stop-color="#181818" stop-opacity="0"/></radialGradient><radialGradient id="Degradado_sin_nombre_3-2" cx="-465.24" cy="459.63" r="0.49" gradientTransform="matrix(-5.69, 0, 0, 1, -2645.41, -438)" xlink:href="#Degradado_sin_nombre_3"/><linearGradient id="Degradado_sin_nombre_4" x1="-255.5" y1="522.22" x2="-255.5" y2="523.61" gradientTransform="matrix(2.84, 0, 0, -0.71, 738.16, 395.14)" gradientUnits="userSpaceOnUse"><stop offset="0" stop-color="#181818" stop-opacity="0"/><stop offset="0.5" stop-color="#181818"/><stop offset="1" stop-color="#181818" stop-opacity="0"/></linearGradient><radialGradient id="Degradado_sin_nombre_18" cx="-392.27" cy="530.88" r="2.5" gradientTransform="matrix(0, 25.08, 30.79, 0, -16335.74, 9829.97)" gradientUnits="userSpaceOnUse"><stop offset="0" stop-color="#f2f2f2"/><stop offset="1" stop-color="#ccc"/></radialGradient><linearGradient id="Degradado_sin_nombre_51" x1="1.94" y1="3.75" x2="22.08" y2="3.75" gradientUnits="userSpaceOnUse"><stop offset="0" stop-color="#3689e6"/><stop offset="1" stop-color="#68b723"/></linearGradient><linearGradient id="Degradado_sin_nombre_6" x1="-250.42" y1="504.18" x2="-250.42" y2="495.87" gradientTransform="matrix(2.73, 0, 0, -2.73, 695.57, 1376.38)" gradientUnits="userSpaceOnUse"><stop offset="0" stop-color="#fff"/><stop offset="0.06" stop-color="#fff" stop-opacity="0.24"/><stop offset="0.95" stop-color="#fff" stop-opacity="0.16"/><stop offset="1" stop-color="#fff" stop-opacity="0.39"/></linearGradient><radialGradient id="Degradado_sin_nombre_45" cx="237.44" cy="-11.43" r="13.39" gradientTransform="translate(-124.34 19.2) scale(0.57 0.48)" gradientUnits="userSpaceOnUse"><stop offset="0" stop-color="#fff"/><stop offset="1" stop-color="#ededed"/></radialGradient><radialGradient id="Degradado_sin_nombre_45-2" cx="237.44" cy="-5.85" r="10.83" xlink:href="#Degradado_sin_nombre_45"/><radialGradient id="Degradado_sin_nombre_45-3" cx="237.44" cy="-11.43" r="10.83" xlink:href="#Degradado_sin_nombre_45"/><radialGradient id="Degradado_sin_nombre_45-4" cx="237.44" cy="-17" r="10.83" xlink:href="#Degradado_sin_nombre_45"/><radialGradient id="Degradado_sin_nombre_45-5" cx="248.38" cy="-11.43" r="7.89" xlink:href="#Degradado_sin_nombre_45"/><radialGradient id="Degradado_sin_nombre_45-6" cx="244" cy="-11.43" r="7.89" xlink:href="#Degradado_sin_nombre_45"/><radialGradient id="Degradado_sin_nombre_45-7" cx="239.63" cy="-11.43" r="7.89" xlink:href="#Degradado_sin_nombre_45"/><radialGradient id="Degradado_sin_nombre_45-8" cx="235.25" cy="-11.43" r="7.89" xlink:href="#Degradado_sin_nombre_45"/><radialGradient id="Degradado_sin_nombre_45-9" cx="230.88" cy="-11.43" r="7.89" xlink:href="#Degradado_sin_nombre_45"/><radialGradient id="Degradado_sin_nombre_45-10" cx="226.5" cy="-11.43" r="7.89" xlink:href="#Degradado_sin_nombre_45"/></defs><title>com.github.calo001.luna_4</title><path id="path3041" d="M22.87,21.53c0,.66-4.87,1.19-10.87,1.19S1.13,22.19,1.13,21.53,6,20.35,12,20.35s10.87.53,10.87,1.18Z" style="opacity:0.20000000298023224;isolation:isolate;fill:url(#Degradado_sin_nombre_2)"/><g id="g2036"><g id="g3712" style="opacity:0.4000000059604645"><rect id="rect2801" x="19.86" y="21.14" width="2.81" height="0.99" style="fill:url(#Degradado_sin_nombre_3)"/><rect id="rect3696" x="1.33" y="21.14" width="2.81" height="0.99" style="fill:url(#Degradado_sin_nombre_3-2)"/><rect id="rect3700" x="4.14" y="21.14" width="15.72" height="0.99" style="fill:url(#Degradado_sin_nombre_4)"/></g></g><rect id="rect5505-21-3" x="1.82" y="1.28" width="20.35" height="20.35" rx="1.2" ry="1.2" style="fill:url(#Degradado_sin_nombre_18)"/><path d="M3.94,1.28H20.08a2,2,0,0,1,2,2V6.22a0,0,0,0,1,0,0H1.94a0,0,0,0,1,0,0V3.28A2,2,0,0,1,3.94,1.28Z" style="fill:url(#Degradado_sin_nombre_51)"/><rect id="rect6741-7" x="2.02" y="1.48" width="19.96" height="19.96" rx="0.99" ry="0.99" style="fill:none;stroke-linecap:round;stroke-linejoin:round;stroke-width:0.9999999403953552px;opacity:0.30000001192092896;isolation:isolate;stroke:url(#Degradado_sin_nombre_6)"/><rect id="rect5505-21-6" x="1.82" y="1.28" width="20.35" height="20.35" rx="1.19" ry="1.19" style="fill:none;stroke:#0e141f;stroke-linecap:round;stroke-linejoin:round;stroke-width:0.75px;opacity:0.5;isolation:isolate"/><rect x="3.21" y="8.33" width="17.58" height="10.74" style="stroke:#b3b3b3;stroke-miterlimit:10;stroke-width:0.75px;fill:url(#Degradado_sin_nombre_45)"/><line x1="3.21" y1="16.38" x2="20.79" y2="16.38" style="stroke:#b3b3b3;stroke-miterlimit:10;stroke-width:0.75px;fill:url(#Degradado_sin_nombre_45-2)"/><line x1="3.21" y1="13.7" x2="20.79" y2="13.7" style="stroke:#b3b3b3;stroke-miterlimit:10;stroke-width:0.75px;fill:url(#Degradado_sin_nombre_45-3)"/><line x1="3.21" y1="11.01" x2="20.79" y2="11.01" style="stroke:#b3b3b3;stroke-miterlimit:10;stroke-width:0.75px;fill:url(#Degradado_sin_nombre_45-4)"/><line x1="18.28" y1="8.33" x2="18.28" y2="19.06" style="stroke:#b3b3b3;stroke-miterlimit:10;stroke-width:0.75px;fill:url(#Degradado_sin_nombre_45-5)"/><line x1="15.77" y1="8.33" x2="15.77" y2="19.06" style="stroke:#b3b3b3;stroke-miterlimit:10;stroke-width:0.75px;fill:url(#Degradado_sin_nombre_45-6)"/><line x1="13.26" y1="8.33" x2="13.26" y2="19.06" style="stroke:#b3b3b3;stroke-miterlimit:10;stroke-width:0.75px;fill:url(#Degradado_sin_nombre_45-7)"/><line x1="10.74" y1="8.33" x2="10.74" y2="19.06" style="stroke:#b3b3b3;stroke-miterlimit:10;stroke-width:0.75px;fill:url(#Degradado_sin_nombre_45-8)"/><line x1="8.23" y1="8.33" x2="8.23" y2="19.06" style="stroke:#b3b3b3;stroke-miterlimit:10;stroke-width:0.75px;fill:url(#Degradado_sin_nombre_45-9)"/><line x1="5.72" y1="8.33" x2="5.72" y2="19.06" style="stroke:#b3b3b3;stroke-miterlimit:10;stroke-width:0.75px;fill:url(#Degradado_sin_nombre_45-10)"/></svg>