<svg xmlns="http://www.w3.org/2000/svg" xmlns:xlink="http://www.w3.org/1999/xlink" viewBox="0 0 24 24"><defs><radialGradient id="Degradado_sin_nombre_2" cx="-263.01" cy="-542.3" r="6.85" gradientTransform="matrix(1.56, 0, 0, -0.17, 421.35, -69.73)" gradientUnits="userSpaceOnUse"><stop offset="0"/><stop offset="1" stop-opacity="0"/></radialGradient><radialGradient id="Degradado_sin_nombre_3" cx="-529.97" cy="184.55" r="0.48" gradientTransform="matrix(5.69, 0, 0, -1, 3037.86, 207)" gradientUnits="userSpaceOnUse"><stop offset="0" stop-color="#181818"/><stop offset="1" stop-color="#181818" stop-opacity="0"/></radialGradient><radialGradient id="Degradado_sin_nombre_3-2" cx="-733.31" cy="460.45" r="0.48" gradientTransform="matrix(-5.69, 0, 0, 1, -4171.86, -438)" xlink:href="#Degradado_sin_nombre_3"/><linearGradient id="Degradado_sin_nombre_4" x1="-403.28" y1="128.69" x2="-403.28" y2="130.05" gradientTransform="matrix(2.84, 0, 0, -0.71, 1158.16, 114.86)" gradientUnits="userSpaceOnUse"><stop offset="0" stop-color="#181818" stop-opacity="0"/><stop offset="0.5" stop-color="#181818"/><stop offset="1" stop-color="#181818" stop-opacity="0"/></linearGradient><radialGradient id="Degradado_sin_nombre_57" cx="12" cy="12.47" r="9.98" gradientUnits="userSpaceOnUse"><stop offset="0" stop-color="#452981"/><stop offset="1" stop-color="#273445"/></radialGradient><linearGradient id="Degradado_sin_nombre_9" x1="5.9" y1="12.56" x2="18.2" y2="12.56" gradientUnits="userSpaceOnUse"><stop offset="0" stop-color="#ffb345"/><stop offset="1" stop-color="#e0ff00"/></linearGradient><radialGradient id="Degradado_sin_nombre_95" cx="11.79" cy="11.85" r="7.3" gradientUnits="userSpaceOnUse"><stop offset="0.6" stop-opacity="0"/><stop offset="0.83" stop-opacity="0.16"/><stop offset="1" stop-opacity="0.2"/></radialGradient><linearGradient id="Degradado_sin_nombre_10" x1="6.61" y1="15.7" x2="17.48" y2="9.43" xlink:href="#Degradado_sin_nombre_9"/></defs><title>com.github.calo001.luna_4</title><g style="isolation:isolate"><g id="Capa_1" data-name="Capa 1"><path id="path3041" d="M22.66,22.35c0,.64-4.78,1.16-10.66,1.16S1.34,23,1.34,22.35,6.11,21.19,12,21.19s10.66.52,10.66,1.16Z" style="opacity:0.200000002980232;isolation:isolate;fill:url(#Degradado_sin_nombre_2)"/><g id="g2036"><g id="g3712" style="opacity:0.400000005960465"><rect id="rect2801" x="19.71" y="21.96" width="2.75" height="0.97" style="fill:url(#Degradado_sin_nombre_3)"/><rect id="rect3696" x="1.54" y="21.96" width="2.75" height="0.97" style="fill:url(#Degradado_sin_nombre_3-2)"/><rect id="rect3700" x="4.29" y="21.96" width="15.42" height="0.97" style="fill:url(#Degradado_sin_nombre_4)"/></g></g><rect id="rect5505-21-3" x="2.02" y="2.49" width="19.96" height="19.96" rx="1.17" ry="1.17" style="fill:url(#Degradado_sin_nombre_57)"/><rect id="rect6741-7" x="2.22" y="2.68" width="19.57" height="19.57" rx="0.97" ry="0.97" style="fill:none;stroke:#000;stroke-miterlimit:10;stroke-width:0.5px;opacity:0.300000011920929;isolation:isolate"/><rect id="rect5505-21-6" x="2.02" y="2.49" width="19.96" height="19.96" rx="1.16" ry="1.16" style="fill:none;stroke:#000;stroke-miterlimit:10;stroke-opacity:0.29;stroke-width:0.5px;opacity:0.5;isolation:isolate"/><g style="mix-blend-mode:multiply"><circle cx="12.05" cy="13.56" r="6.15" style="fill:#f9ff00"/><circle cx="12.05" cy="13.56" r="6.15" style="fill:#f9ff00"/><circle cx="12.05" cy="13.56" r="6.15" style="fill:none;stroke:#f9ff00;stroke-miterlimit:10;stroke-width:0.25px"/></g><circle cx="12.05" cy="12.56" r="6.15" style="fill:url(#Degradado_sin_nombre_9)"/><circle cx="12.05" cy="12.56" r="6.15" style="fill:url(#Degradado_sin_nombre_95)"/><circle cx="12.05" cy="12.56" r="6.15" style="fill:none;stroke-miterlimit:10;stroke-width:0.25px;stroke:url(#Degradado_sin_nombre_10)"/><ellipse cx="10.35" cy="11.24" rx="1.56" ry="1.55" style="stroke:#999;stroke-miterlimit:10;opacity:0.2"/><circle cx="11.91" cy="15.75" r="0.53" style="stroke:#999;stroke-miterlimit:10;opacity:0.2"/><circle cx="15.34" cy="12.66" r="0.94" style="stroke:#999;stroke-miterlimit:10;opacity:0.2"/></g></g></svg>