<svg id="Capa_1" data-name="Capa 1" xmlns="http://www.w3.org/2000/svg" xmlns:xlink="http://www.w3.org/1999/xlink" viewBox="0 0 64 64"><defs><radialGradient id="Degradado_sin_nombre_2" cx="-108.96" cy="384.37" r="18.63" gradientTransform="matrix(1.56, 0, 0, -0.17, 201.58, 122.7)" gradientUnits="userSpaceOnUse"><stop offset="0"/><stop offset="1" stop-opacity="0"/></radialGradient><radialGradient id="Degradado_sin_nombre_3" cx="-198.49" cy="478.3" r="1.32" gradientTransform="matrix(5.69, 0, 0, -1, 1183.35, 536)" gradientUnits="userSpaceOnUse"><stop offset="0" stop-color="#181818"/><stop offset="1" stop-color="#181818" stop-opacity="0"/></radialGradient><radialGradient id="Degradado_sin_nombre_3-2" cx="-270.13" cy="495.7" r="1.32" gradientTransform="matrix(-5.69, 0, 0, 1, -1527.35, -438)" xlink:href="#Degradado_sin_nombre_3"/><linearGradient id="Degradado_sin_nombre_4" x1="-140.22" y1="472.95" x2="-140.22" y2="476.66" gradientTransform="matrix(2.84, 0, 0, -0.71, 430.53, 396.86)" gradientUnits="userSpaceOnUse"><stop offset="0" stop-color="#181818" stop-opacity="0"/><stop offset="0.5" stop-color="#181818"/><stop offset="1" stop-color="#181818" stop-opacity="0"/></linearGradient><radialGradient id="Degradado_sin_nombre_18" cx="-225.95" cy="527.13" r="6.68" gradientTransform="matrix(0, 25.08, 30.79, 0, -16199.53, 5642.06)" gradientUnits="userSpaceOnUse"><stop offset="0" stop-color="#f2f2f2"/><stop offset="1" stop-color="#ccc"/></radialGradient><linearGradient id="Degradado_sin_nombre_51" x1="5.14" y1="9.99" x2="58.89" y2="9.99" gradientUnits="userSpaceOnUse"><stop offset="0" stop-color="#3689e6"/><stop offset="1" stop-color="#68b723"/></linearGradient><linearGradient id="Degradado_sin_nombre_6" x1="-137.27" y1="504.65" x2="-137.27" y2="484.14" gradientTransform="matrix(2.73, 0, 0, -2.73, 406.7, 1380.11)" gradientUnits="userSpaceOnUse"><stop offset="0" stop-color="#fff"/><stop offset="0.06" stop-color="#fff" stop-opacity="0.24"/><stop offset="0.95" stop-color="#fff" stop-opacity="0.16"/><stop offset="1" stop-color="#fff" stop-opacity="0.39"/></linearGradient><radialGradient id="Degradado_sin_nombre_45" cx="148.43" cy="34.92" r="35.75" gradientTransform="translate(-53.23 19.71) scale(0.57 0.48)" gradientUnits="userSpaceOnUse"><stop offset="0" stop-color="#fff"/><stop offset="1" stop-color="#ededed"/></radialGradient><radialGradient id="Degradado_sin_nombre_45-2" cx="148.43" cy="49.8" r="28.89" xlink:href="#Degradado_sin_nombre_45"/><radialGradient id="Degradado_sin_nombre_45-3" cx="148.43" cy="34.92" r="28.89" xlink:href="#Degradado_sin_nombre_45"/><radialGradient id="Degradado_sin_nombre_45-4" cx="148.43" cy="20.04" r="28.89" xlink:href="#Degradado_sin_nombre_45"/><radialGradient id="Degradado_sin_nombre_45-5" cx="177.62" cy="34.92" r="21.04" xlink:href="#Degradado_sin_nombre_45"/><radialGradient id="Degradado_sin_nombre_45-6" cx="165.94" cy="34.92" r="21.04" xlink:href="#Degradado_sin_nombre_45"/><radialGradient id="Degradado_sin_nombre_45-7" cx="154.26" cy="34.92" r="21.04" xlink:href="#Degradado_sin_nombre_45"/><radialGradient id="Degradado_sin_nombre_45-8" cx="142.59" cy="34.92" r="21.04" xlink:href="#Degradado_sin_nombre_45"/><radialGradient id="Degradado_sin_nombre_45-9" cx="130.91" cy="34.92" r="21.04" xlink:href="#Degradado_sin_nombre_45"/><radialGradient id="Degradado_sin_nombre_45-10" cx="119.24" cy="34.92" r="21.04" xlink:href="#Degradado_sin_nombre_45"/></defs><title>com.github.calo001.luna_1</title><path id="path3041" d="M61,57.44c0,1.75-13,3.16-29,3.16S3,59.19,3,57.44s13-3.16,29-3.16,29,1.41,29,3.16Z" style="opacity:0.20000000298023224;isolation:isolate;fill:url(#Degradado_sin_nombre_2)"/><g id="g2036"><g id="g3712" style="opacity:0.4000000059604645"><rect id="rect2801" x="52.98" y="56.39" width="7.49" height="2.64" style="fill:url(#Degradado_sin_nombre_3)"/><rect id="rect3696" x="3.53" y="56.39" width="7.49" height="2.64" style="fill:url(#Degradado_sin_nombre_3-2)"/><rect id="rect3700" x="11.02" y="56.39" width="41.96" height="2.64" style="fill:url(#Degradado_sin_nombre_4)"/></g></g><rect id="rect5505-21-3" x="4.85" y="3.4" width="54.31" height="54.31" rx="3.19" ry="3.19" style="fill:url(#Degradado_sin_nombre_18)"/><path d="M8.14,3.4H55.89a3,3,0,0,1,3,3V16.58a0,0,0,0,1,0,0H5.14a0,0,0,0,1,0,0V6.4a3,3,0,0,1,3-3Z" style="fill:url(#Degradado_sin_nombre_51)"/><rect id="rect6741-7" x="5.37" y="3.92" width="53.25" height="53.25" rx="2.64" ry="2.64" style="fill:none;stroke-linecap:round;stroke-linejoin:round;stroke-width:0.9999999403953552px;opacity:0.30000001192092896;isolation:isolate;stroke:url(#Degradado_sin_nombre_6)"/><rect id="rect5505-21-6" x="4.85" y="3.4" width="54.31" height="54.31" rx="3.16" ry="3.16" style="fill:none;stroke:#0e141f;stroke-linecap:round;stroke-linejoin:round;opacity:0.5;isolation:isolate"/><rect x="8.54" y="22.2" width="46.93" height="28.65" style="stroke:#b3b3b3;stroke-miterlimit:10;fill:url(#Degradado_sin_nombre_45)"/><line x1="8.54" y1="43.69" x2="55.46" y2="43.69" style="stroke:#b3b3b3;stroke-miterlimit:10;fill:url(#Degradado_sin_nombre_45-2)"/><line x1="8.54" y1="36.53" x2="55.46" y2="36.53" style="stroke:#b3b3b3;stroke-miterlimit:10;fill:url(#Degradado_sin_nombre_45-3)"/><line x1="8.54" y1="29.36" x2="55.46" y2="29.36" style="stroke:#b3b3b3;stroke-miterlimit:10;fill:url(#Degradado_sin_nombre_45-4)"/><line x1="48.76" y1="22.2" x2="48.76" y2="50.85" style="stroke:#b3b3b3;stroke-miterlimit:10;fill:url(#Degradado_sin_nombre_45-5)"/><line x1="42.06" y1="22.2" x2="42.06" y2="50.85" style="stroke:#b3b3b3;stroke-miterlimit:10;fill:url(#Degradado_sin_nombre_45-6)"/><line x1="35.35" y1="22.2" x2="35.35" y2="50.85" style="stroke:#b3b3b3;stroke-miterlimit:10;fill:url(#Degradado_sin_nombre_45-7)"/><line x1="28.65" y1="22.2" x2="28.65" y2="50.85" style="stroke:#b3b3b3;stroke-miterlimit:10;fill:url(#Degradado_sin_nombre_45-8)"/><line x1="21.94" y1="22.2" x2="21.94" y2="50.85" style="stroke:#b3b3b3;stroke-miterlimit:10;fill:url(#Degradado_sin_nombre_45-9)"/><line x1="15.24" y1="22.2" x2="15.24" y2="50.85" style="stroke:#b3b3b3;stroke-miterlimit:10;fill:url(#Degradado_sin_nombre_45-10)"/></svg>