<svg id="Capa_1" data-name="Capa 1" xmlns="http://www.w3.org/2000/svg" xmlns:xlink="http://www.w3.org/1999/xlink" viewBox="0 0 128 128"><defs><radialGradient id="Degradado_sin_nombre_2" cx="-40.49" cy="61.57" r="35.34" gradientTransform="matrix(1.56, 0, 0, -0.17, 127.02, 122.7)" gradientUnits="userSpaceOnUse"><stop offset="0"/><stop offset="1" stop-opacity="0"/></radialGradient><radialGradient id="Degradado_sin_nombre_3" cx="-79.1" cy="423.25" r="2.5" gradientTransform="matrix(5.69, 0, 0, -1, 554.22, 536)" gradientUnits="userSpaceOnUse"><stop offset="0" stop-color="#181818"/><stop offset="1" stop-color="#181818" stop-opacity="0"/></radialGradient><radialGradient id="Degradado_sin_nombre_3-2" cx="-114.92" cy="550.75" r="2.5" gradientTransform="matrix(-5.69, 0, 0, 1, -630.22, -438)" xlink:href="#Degradado_sin_nombre_3"/><linearGradient id="Degradado_sin_nombre_4" x1="-42.11" y1="394.22" x2="-42.11" y2="401.25" gradientTransform="matrix(2.84, 0, 0, -0.71, 183.68, 396.86)" gradientUnits="userSpaceOnUse"><stop offset="0" stop-color="#181818" stop-opacity="0"/><stop offset="0.5" stop-color="#181818"/><stop offset="1" stop-color="#181818" stop-opacity="0"/></linearGradient><radialGradient id="Degradado_sin_nombre_18" cx="-92.73" cy="523.86" r="12.67" gradientTransform="matrix(0, 25.08, 30.79, 0, -16065.55, 2280.9)" gradientUnits="userSpaceOnUse"><stop offset="0" stop-color="#f2f2f2"/><stop offset="1" stop-color="#ccc"/></radialGradient><linearGradient id="Degradado_sin_nombre_51" x1="13.07" y1="22.25" x2="115" y2="22.25" gradientUnits="userSpaceOnUse"><stop offset="0" stop-color="#3689e6"/><stop offset="1" stop-color="#68b723"/></linearGradient><linearGradient id="Degradado_sin_nombre_6" x1="-40.63" y1="502.15" x2="-40.63" y2="464.15" gradientTransform="matrix(2.73, 0, 0, -2.73, 174.92, 1380.11)" gradientUnits="userSpaceOnUse"><stop offset="0" stop-color="#fff"/><stop offset="0.06" stop-color="#fff" stop-opacity="0.24"/><stop offset="0.95" stop-color="#fff" stop-opacity="0.16"/><stop offset="1" stop-color="#fff" stop-opacity="0.39"/></linearGradient><radialGradient id="Degradado_sin_nombre_45" cx="104.79" cy="109.83" r="67.79" gradientTransform="translate(3.83 19.71) scale(0.57 0.48)" gradientUnits="userSpaceOnUse"><stop offset="0" stop-color="#fff"/><stop offset="1" stop-color="#ededed"/></radialGradient><radialGradient id="Degradado_sin_nombre_45-2" cx="104.79" cy="138.05" r="54.8" xlink:href="#Degradado_sin_nombre_45"/><radialGradient id="Degradado_sin_nombre_45-3" cx="104.79" cy="109.83" r="54.8" xlink:href="#Degradado_sin_nombre_45"/><radialGradient id="Degradado_sin_nombre_45-4" cx="104.79" cy="81.61" r="54.8" xlink:href="#Degradado_sin_nombre_45"/><radialGradient id="Degradado_sin_nombre_45-5" cx="160.14" cy="109.83" r="39.91" xlink:href="#Degradado_sin_nombre_45"/><radialGradient id="Degradado_sin_nombre_45-6" cx="138" cy="109.83" r="39.91" xlink:href="#Degradado_sin_nombre_45"/><radialGradient id="Degradado_sin_nombre_45-7" cx="115.86" cy="109.83" r="39.91" xlink:href="#Degradado_sin_nombre_45"/><radialGradient id="Degradado_sin_nombre_45-8" cx="93.72" cy="109.83" r="39.91" xlink:href="#Degradado_sin_nombre_45"/><radialGradient id="Degradado_sin_nombre_45-9" cx="71.57" cy="109.83" r="39.91" xlink:href="#Degradado_sin_nombre_45"/><radialGradient id="Degradado_sin_nombre_45-10" cx="49.43" cy="109.83" r="39.91" xlink:href="#Degradado_sin_nombre_45"/></defs><title>com.github.calo001.luna</title><path id="path3041" d="M119,112.25c0,3.31-24.63,6-55,6s-55-2.69-55-6,24.61-6,55-6,55,2.68,55,6Z" style="opacity:0.20000000298023224;isolation:isolate;fill:url(#Degradado_sin_nombre_2)"/><g id="g2036"><g id="g3712" style="opacity:0.4000000059604645"><rect id="rect2801" x="103.79" y="110.25" width="14.21" height="5" style="fill:url(#Degradado_sin_nombre_3)"/><rect id="rect3696" x="10" y="110.25" width="14.21" height="5" style="fill:url(#Degradado_sin_nombre_3-2)"/><rect id="rect3700" x="24.21" y="110.25" width="79.58" height="5" style="fill:url(#Degradado_sin_nombre_4)"/></g></g><rect id="rect5505-21-3" x="12.5" y="9.75" width="103" height="103" rx="6.05" ry="6.05" style="fill:url(#Degradado_sin_nombre_18)"/><path d="M19.07,9.75H109a6,6,0,0,1,6,6v19a0,0,0,0,1,0,0H13.07a0,0,0,0,1,0,0v-19a6,6,0,0,1,6-6Z" style="fill:url(#Degradado_sin_nombre_51)"/><rect id="rect6741-7" x="13.5" y="10.75" width="101" height="101" rx="5" ry="5" style="fill:none;stroke-linecap:round;stroke-linejoin:round;stroke-width:0.9999999403953552px;opacity:0.30000001192092896;isolation:isolate;stroke:url(#Degradado_sin_nombre_6)"/><rect id="rect5505-21-6" x="12.5" y="9.75" width="103" height="103" rx="6" ry="6" style="fill:none;stroke:#0e141f;stroke-linecap:round;stroke-linejoin:round;opacity:0.5;isolation:isolate"/><rect x="19.5" y="45.41" width="89" height="54.34" style="stroke:#b3b3b3;stroke-miterlimit:10;fill:url(#Degradado_sin_nombre_45)"/><line x1="19.5" y1="86.17" x2="108.5" y2="86.17" style="stroke:#b3b3b3;stroke-miterlimit:10;fill:url(#Degradado_sin_nombre_45-2)"/><line x1="19.5" y1="72.58" x2="108.5" y2="72.58" style="stroke:#b3b3b3;stroke-miterlimit:10;fill:url(#Degradado_sin_nombre_45-3)"/><line x1="19.5" y1="59" x2="108.5" y2="59" style="stroke:#b3b3b3;stroke-miterlimit:10;fill:url(#Degradado_sin_nombre_45-4)"/><line x1="95.79" y1="45.41" x2="95.79" y2="99.75" style="stroke:#b3b3b3;stroke-miterlimit:10;fill:url(#Degradado_sin_nombre_45-5)"/><line x1="83.07" y1="45.41" x2="83.07" y2="99.75" style="stroke:#b3b3b3;stroke-miterlimit:10;fill:url(#Degradado_sin_nombre_45-6)"/><line x1="70.36" y1="45.41" x2="70.36" y2="99.75" style="stroke:#b3b3b3;stroke-miterlimit:10;fill:url(#Degradado_sin_nombre_45-7)"/><line x1="57.64" y1="45.41" x2="57.64" y2="99.75" style="stroke:#b3b3b3;stroke-miterlimit:10;fill:url(#Degradado_sin_nombre_45-8)"/><line x1="44.93" y1="45.41" x2="44.93" y2="99.75" style="stroke:#b3b3b3;stroke-miterlimit:10;fill:url(#Degradado_sin_nombre_45-9)"/><line x1="32.21" y1="45.41" x2="32.21" y2="99.75" style="stroke:#b3b3b3;stroke-miterlimit:10;fill:url(#Degradado_sin_nombre_45-10)"/></svg>