<svg id="Capa_1" data-name="Capa 1" xmlns="http://www.w3.org/2000/svg" xmlns:xlink="http://www.w3.org/1999/xlink" viewBox="0 0 32 32"><defs><radialGradient id="Degradado_sin_nombre_2" cx="-164.46" cy="549.74" r="9.79" gradientTransform="matrix(1.56, 0, 0, -0.17, 271.96, 122.7)" gradientUnits="userSpaceOnUse"><stop offset="0"/><stop offset="1" stop-opacity="0"/></radialGradient><radialGradient id="Degradado_sin_nombre_3" cx="-307.33" cy="506.5" r="0.69" gradientTransform="matrix(5.69, 0, 0, -1, 1777.26, 536)" gradientUnits="userSpaceOnUse"><stop offset="0" stop-color="#181818"/><stop offset="1" stop-color="#181818" stop-opacity="0"/></radialGradient><radialGradient id="Degradado_sin_nombre_3-2" cx="-417.78" cy="467.5" r="0.69" gradientTransform="matrix(-5.69, 0, 0, 1, -2374.26, -438)" xlink:href="#Degradado_sin_nombre_3"/><linearGradient id="Degradado_sin_nombre_4" x1="-227.84" y1="513.32" x2="-227.84" y2="515.27" gradientTransform="matrix(2.84, 0, 0, -0.71, 663.55, 396.86)" gradientUnits="userSpaceOnUse"><stop offset="0" stop-color="#181818" stop-opacity="0"/><stop offset="0.5" stop-color="#181818"/><stop offset="1" stop-color="#181818" stop-opacity="0"/></linearGradient><radialGradient id="Degradado_sin_nombre_18" cx="-352" cy="530.7" r="3.51" gradientTransform="matrix(0, 25.08, 30.79, 0, -16326.03, 8815.1)" gradientUnits="userSpaceOnUse"><stop offset="0" stop-color="#f2f2f2"/><stop offset="1" stop-color="#ccc"/></radialGradient><linearGradient id="Degradado_sin_nombre_51" x1="1.89" y1="4.44" x2="30.13" y2="4.44" gradientUnits="userSpaceOnUse"><stop offset="0" stop-color="#3689e6"/><stop offset="1" stop-color="#68b723"/></linearGradient><linearGradient id="Degradado_sin_nombre_6" x1="-223.29" y1="505.63" x2="-223.29" y2="494.38" gradientTransform="matrix(2.73, 0, 0, -2.73, 625.51, 1380.11)" gradientUnits="userSpaceOnUse"><stop offset="0" stop-color="#fff"/><stop offset="0.06" stop-color="#fff" stop-opacity="0.24"/><stop offset="0.95" stop-color="#fff" stop-opacity="0.16"/><stop offset="1" stop-color="#fff" stop-opacity="0.39"/></linearGradient><radialGradient id="Degradado_sin_nombre_45" cx="214.37" cy="-2.78" r="18.78" gradientTransform="translate(-107.09 19.71) scale(0.57 0.48)" gradientUnits="userSpaceOnUse"><stop offset="0" stop-color="#fff"/><stop offset="1" stop-color="#ededed"/></radialGradient><radialGradient id="Degradado_sin_nombre_45-2" cx="214.37" cy="5.04" r="15.18" xlink:href="#Degradado_sin_nombre_45"/><radialGradient id="Degradado_sin_nombre_45-3" cx="214.37" cy="-2.78" r="15.18" xlink:href="#Degradado_sin_nombre_45"/><radialGradient id="Degradado_sin_nombre_45-4" cx="214.37" cy="-10.59" r="15.18" xlink:href="#Degradado_sin_nombre_45"/><radialGradient id="Degradado_sin_nombre_45-5" cx="229.7" cy="-2.78" r="11.05" xlink:href="#Degradado_sin_nombre_45"/><radialGradient id="Degradado_sin_nombre_45-6" cx="223.57" cy="-2.78" r="11.05" xlink:href="#Degradado_sin_nombre_45"/><radialGradient id="Degradado_sin_nombre_45-7" cx="217.44" cy="-2.78" r="11.05" xlink:href="#Degradado_sin_nombre_45"/><radialGradient id="Degradado_sin_nombre_45-8" cx="211.3" cy="-2.78" r="11.05" xlink:href="#Degradado_sin_nombre_45"/><radialGradient id="Degradado_sin_nombre_45-9" cx="205.17" cy="-2.78" r="11.05" xlink:href="#Degradado_sin_nombre_45"/><radialGradient id="Degradado_sin_nombre_45-10" cx="199.04" cy="-2.78" r="11.05" xlink:href="#Degradado_sin_nombre_45"/></defs><title>com.github.calo001.luna_3</title><path id="path3041" d="M31.23,29.36C31.23,30.28,24.41,31,16,31S.77,30.28.77,29.36,7.58,27.7,16,27.7s15.23.75,15.23,1.66Z" style="opacity:0.20000000298023224;isolation:isolate;fill:url(#Degradado_sin_nombre_2)"/><g id="g2036"><g id="g3712" style="opacity:0.4000000059604645"><rect id="rect2801" x="27.02" y="28.81" width="3.94" height="1.38" style="fill:url(#Degradado_sin_nombre_3)"/><rect id="rect3696" x="1.04" y="28.81" width="3.94" height="1.38" style="fill:url(#Degradado_sin_nombre_3-2)"/><rect id="rect3700" x="4.98" y="28.81" width="22.04" height="1.38" style="fill:url(#Degradado_sin_nombre_4)"/></g></g><rect id="rect5505-21-3" x="1.74" y="0.97" width="28.53" height="28.53" rx="1.68" ry="1.68" style="fill:url(#Degradado_sin_nombre_18)"/><path d="M3.89,1H28.13a2,2,0,0,1,2,2V7.9a0,0,0,0,1,0,0H1.89a0,0,0,0,1,0,0V3A2,2,0,0,1,3.89,1Z" style="fill:url(#Degradado_sin_nombre_51)"/><rect id="rect6741-7" x="2.01" y="1.25" width="27.98" height="27.98" rx="1.38" ry="1.38" style="fill:none;stroke-linecap:round;stroke-linejoin:round;stroke-width:0.9999999403953552px;opacity:0.30000001192092896;isolation:isolate;stroke:url(#Degradado_sin_nombre_6)"/><rect id="rect5505-21-6" x="1.74" y="0.97" width="28.53" height="28.53" rx="1.66" ry="1.66" style="fill:none;stroke:#0e141f;stroke-linecap:round;stroke-linejoin:round;stroke-width:0.75px;opacity:0.5;isolation:isolate"/><rect x="3.67" y="10.85" width="24.65" height="15.05" style="stroke:#b3b3b3;stroke-miterlimit:10;stroke-width:0.75px;fill:url(#Degradado_sin_nombre_45)"/><line x1="3.67" y1="22.14" x2="28.33" y2="22.14" style="stroke:#b3b3b3;stroke-miterlimit:10;stroke-width:0.75px;fill:url(#Degradado_sin_nombre_45-2)"/><line x1="3.67" y1="18.38" x2="28.33" y2="18.38" style="stroke:#b3b3b3;stroke-miterlimit:10;stroke-width:0.75px;fill:url(#Degradado_sin_nombre_45-3)"/><line x1="3.67" y1="14.61" x2="28.33" y2="14.61" style="stroke:#b3b3b3;stroke-miterlimit:10;stroke-width:0.75px;fill:url(#Degradado_sin_nombre_45-4)"/><line x1="24.8" y1="10.85" x2="24.8" y2="25.9" style="stroke:#b3b3b3;stroke-miterlimit:10;stroke-width:0.75px;fill:url(#Degradado_sin_nombre_45-5)"/><line x1="21.28" y1="10.85" x2="21.28" y2="25.9" style="stroke:#b3b3b3;stroke-miterlimit:10;stroke-width:0.75px;fill:url(#Degradado_sin_nombre_45-6)"/><line x1="17.76" y1="10.85" x2="17.76" y2="25.9" style="stroke:#b3b3b3;stroke-miterlimit:10;stroke-width:0.75px;fill:url(#Degradado_sin_nombre_45-7)"/><line x1="14.24" y1="10.85" x2="14.24" y2="25.9" style="stroke:#b3b3b3;stroke-miterlimit:10;stroke-width:0.75px;fill:url(#Degradado_sin_nombre_45-8)"/><line x1="10.72" y1="10.85" x2="10.72" y2="25.9" style="stroke:#b3b3b3;stroke-miterlimit:10;stroke-width:0.75px;fill:url(#Degradado_sin_nombre_45-9)"/><line x1="7.2" y1="10.85" x2="7.2" y2="25.9" style="stroke:#b3b3b3;stroke-miterlimit:10;stroke-width:0.75px;fill:url(#Degradado_sin_nombre_45-10)"/></svg>