<svg xmlns="http://www.w3.org/2000/svg" xmlns:xlink="http://www.w3.org/1999/xlink" viewBox="0 0 16 16"><defs><radialGradient id="Degradado_sin_nombre_2" cx="-277.02" cy="-489.7" r="4.4" gradientTransform="matrix(1.56, 0, 0, -0.17, 439.16, -69.14)" gradientUnits="userSpaceOnUse"><stop offset="0"/><stop offset="1" stop-opacity="0"/></radialGradient><radialGradient id="Degradado_sin_nombre_3" cx="-557.54" cy="193.94" r="0.31" gradientTransform="matrix(5.69, 0, 0, -1, 3188.1, 208)" gradientUnits="userSpaceOnUse"><stop offset="0" stop-color="#181818"/><stop offset="1" stop-color="#181818" stop-opacity="0"/></radialGradient><radialGradient id="Degradado_sin_nombre_3-2" cx="-770.71" cy="452.06" r="0.31" gradientTransform="matrix(-5.69, 0, 0, 1, -4386.1, -438)" xlink:href="#Degradado_sin_nombre_3"/><linearGradient id="Degradado_sin_nombre_4" x1="-425.43" y1="141.87" x2="-425.43" y2="142.75" gradientTransform="matrix(2.84, 0, 0, -0.71, 1217.11, 115.71)" gradientUnits="userSpaceOnUse"><stop offset="0" stop-color="#181818" stop-opacity="0"/><stop offset="0.5" stop-color="#181818"/><stop offset="1" stop-color="#181818" stop-opacity="0"/></linearGradient><radialGradient id="Degradado_sin_nombre_57" cx="8" cy="7.66" r="6.41" gradientUnits="userSpaceOnUse"><stop offset="0" stop-color="#452981"/><stop offset="1" stop-color="#273445"/></radialGradient><linearGradient id="Degradado_sin_nombre_9" x1="4.08" y1="7.72" x2="11.98" y2="7.72" gradientUnits="userSpaceOnUse"><stop offset="0" stop-color="#ffb345"/><stop offset="1" stop-color="#e0ff00"/></linearGradient><radialGradient id="Degradado_sin_nombre_95" cx="7.87" cy="7.26" r="4.69" gradientUnits="userSpaceOnUse"><stop offset="0.6" stop-opacity="0"/><stop offset="0.83" stop-opacity="0.16"/><stop offset="1" stop-opacity="0.2"/></radialGradient><linearGradient id="Degradado_sin_nombre_10" x1="4.5" y1="9.76" x2="11.56" y2="5.68" xlink:href="#Degradado_sin_nombre_9"/></defs><title>com.github.calo001.luna_5</title><g style="isolation:isolate"><g id="Capa_1" data-name="Capa 1"><path id="path3041" d="M14.84,14c0,.41-3.06.75-6.84.75S1.16,14.41,1.16,14s3.06-.74,6.84-.74,6.84.33,6.84.74Z" style="opacity:0.200000002980232;isolation:isolate;fill:url(#Degradado_sin_nombre_2)"/><g id="g2036"><g id="g3712" style="opacity:0.400000005960465"><rect id="rect2801" x="12.95" y="13.75" width="1.77" height="0.62" style="fill:url(#Degradado_sin_nombre_3)"/><rect id="rect3696" x="1.28" y="13.75" width="1.77" height="0.62" style="fill:url(#Degradado_sin_nombre_3-2)"/><rect id="rect3700" x="3.05" y="13.75" width="9.9" height="0.62" style="fill:url(#Degradado_sin_nombre_4)"/></g></g><rect id="rect5505-21-3" x="1.59" y="1.25" width="12.81" height="12.81" rx="0.75" ry="0.75" style="fill:url(#Degradado_sin_nombre_57)"/><rect id="rect6741-7" x="1.72" y="1.38" width="12.56" height="12.56" rx="0.62" ry="0.62" style="fill:none;stroke:#000;stroke-miterlimit:10;stroke-width:0.25px;opacity:0.300000011920929;isolation:isolate"/><rect id="rect5505-21-6" x="1.59" y="1.25" width="12.81" height="12.81" rx="0.75" ry="0.75" style="fill:none;stroke:#000;stroke-linecap:round;stroke-linejoin:round;stroke-opacity:0.29;stroke-width:0.5px;opacity:0.5;isolation:isolate"/><g style="mix-blend-mode:multiply"><circle cx="8.03" cy="8.72" r="3.95" style="fill:#f9ff00"/><circle cx="8.03" cy="8.72" r="3.95" style="fill:#f9ff00"/><circle cx="8.03" cy="8.72" r="3.95" style="fill:none;stroke:#f9ff00;stroke-miterlimit:10;stroke-width:0.25px"/></g><circle cx="8.03" cy="7.72" r="3.95" style="fill:url(#Degradado_sin_nombre_9)"/><circle cx="8.03" cy="7.72" r="3.95" style="fill:url(#Degradado_sin_nombre_95)"/><circle cx="8.03" cy="7.72" r="3.95" style="fill:none;stroke-miterlimit:10;stroke-width:0.25px;stroke:url(#Degradado_sin_nombre_10)"/><circle cx="6.94" cy="6.87" r="1" style="stroke:#999;stroke-miterlimit:10;opacity:0.2"/><circle cx="7.94" cy="9.77" r="0.34" style="stroke:#999;stroke-miterlimit:10;opacity:0.2"/><circle cx="10.15" cy="7.78" r="0.6" style="stroke:#999;stroke-miterlimit:10;opacity:0.2"/></g></g></svg>