<svg id="Capa_1" data-name="Capa 1" xmlns="http://www.w3.org/2000/svg" xmlns:xlink="http://www.w3.org/1999/xlink" viewBox="0 0 16 16"><defs><linearGradient id="Degradado_sin_nombre_31" x1="7.97" y1="15.26" x2="7.97" y2="14.26" gradientUnits="userSpaceOnUse"><stop offset="0" stop-color="#29abe2"/><stop offset="1" stop-color="#0071bc"/></linearGradient><linearGradient id="Degradado_sin_nombre_369" x1="7.92" y1="14.3" x2="7.92" y2="13.02" gradientUnits="userSpaceOnUse"><stop offset="0" stop-color="#fbb03b"/><stop offset="1" stop-color="#ed1c24"/></linearGradient><linearGradient id="Degradado_sin_nombre_345" x1="7.97" y1="13.31" x2="7.97" y2="12.25" gradientUnits="userSpaceOnUse"><stop offset="0" stop-color="#ed1e79"/><stop offset="1" stop-color="#d4145a"/></linearGradient><linearGradient id="Degradado_sin_nombre_17" x1="8" y1="4.22" x2="8" y2="12.16" gradientUnits="userSpaceOnUse"><stop offset="0" stop-color="#e6e6e6"/><stop offset="1" stop-color="#ccc"/></linearGradient><linearGradient id="Degradado_sin_nombre_36" x1="4.2" y1="3.03" x2="4.2" y2="0.86" gradientUnits="userSpaceOnUse"><stop offset="0" stop-color="#333"/><stop offset="1" stop-color="#666"/></linearGradient><linearGradient id="Degradado_sin_nombre_36-2" x1="11.89" y1="3.03" x2="11.89" y2="0.86" xlink:href="#Degradado_sin_nombre_36"/><linearGradient id="Degradado_sin_nombre_365" x1="8.89" y1="9.02" x2="7.29" y2="6.25" gradientUnits="userSpaceOnUse"><stop offset="0" stop-color="#f2f2f2" stop-opacity="0.1"/><stop offset="0.03" stop-color="#cfcfcf" stop-opacity="0.14"/><stop offset="0.19" stop-color="#585858" stop-opacity="0.29"/><stop offset="0.41" stop-color="#131313" stop-opacity="0.38"/><stop offset="1" stop-opacity="0.4"/></linearGradient></defs><title>com.github.calo001.luna_5</title><polygon points="2.89 7.57 12.85 7.57 13.54 15.14 2.4 15.14 2.89 7.57" style="fill:url(#Degradado_sin_nombre_31)"/><g style="opacity:0.4"><path d="M12.4,8.07l.6,6.57H2.93l.43-6.57h9m.45-.5h-10l-.5,7.57H13.54l-.69-7.57Z" style="fill:#f2f2f2"/></g><g style="opacity:0.6"><path d="M12.62,7.82l.65,7.07H2.66l.46-7.07h9.5m.23-.25h-10l-.5,7.57H13.54l-.69-7.57Z"/></g><polygon points="2.34 5.95 13.29 5.95 14.05 14.27 1.8 14.27 2.34 5.95" style="fill:url(#Degradado_sin_nombre_369)"/><g style="opacity:0.4"><path d="M12.83,6.45l.67,7.32H2.33l.48-7.32h10m.46-.5H2.34L1.8,14.27H14.05L13.29,6Z" style="fill:#f2f2f2"/></g><g style="opacity:0.6"><path d="M13.06,6.2,13.77,14H2.06L2.57,6.2H13.06M13.29,6H2.34L1.8,14.27H14.05L13.29,6Z"/></g><polygon points="1.89 4.34 13.81 4.34 14.64 13.4 1.3 13.4 1.89 4.34" style="fill:url(#Degradado_sin_nombre_345)"/><g style="opacity:0.4"><path d="M13.35,4.84l.74,8.06H1.83l.53-8.06h11m.46-.5H1.89L1.3,13.4H14.64l-.83-9.06Z" style="fill:#f2f2f2"/></g><g style="opacity:0.6"><path d="M13.58,4.59l.78,8.56H1.57l.56-8.56H13.58m.23-.25H1.89L1.3,13.4H14.64l-.83-9.06Z"/></g><polygon points="1.17 12.16 1.87 4.22 14.01 4.25 14.82 12.16 1.17 12.16" style="fill:url(#Degradado_sin_nombre_17)"/><path d="M2.1,4.47l11.68,0,.77,7.42H1.44L2.1,4.47M1.64,4,.9,12.41H15.1L14.23,4,1.64,4Z" style="fill:#fff"/><g style="opacity:0.6"><path d="M1.87,4.22,14,4.25l.81,7.91H1.17l.7-7.94M1.64,4,.9,12.41H15.1L14.23,4,1.64,4Z"/></g><path d="M14,1.52H12.34v1a.45.45,0,1,1-.9,0v-1H4.64v1A.45.45,0,0,1,4.19,3a.45.45,0,0,1-.45-.45v-1H1.92a.29.29,0,0,0-.28.28V4.08H14.23V1.8A.28.28,0,0,0,14,1.52Z" style="fill:#991ed3"/><g style="opacity:0.4"><path d="M13.73,2V3.58H2.14V2h1.1v.51a.95.95,0,1,0,1.9,0V2h5.8v.51a.95.95,0,1,0,1.9,0V2h.89m.22-.5H12.34v1a.45.45,0,1,1-.9,0v-1H4.64v1A.45.45,0,0,1,4.19,3a.45.45,0,0,1-.45-.45v-1H1.92a.29.29,0,0,0-.28.28V4.08H14.23V1.8A.28.28,0,0,0,14,1.52Z" style="fill:#fff"/></g><g style="opacity:0.6"><path d="M14,1.77l0,0v2H1.9l0-2.06H3.49v.76a.7.7,0,1,0,1.4,0V1.77h6.3v.76a.7.7,0,0,0,1.4,0V1.77H14m0-.25H12.34v1a.45.45,0,1,1-.9,0v-1H4.64v1A.45.45,0,0,1,4.19,3a.45.45,0,0,1-.45-.45v-1H1.92a.29.29,0,0,0-.28.28V4.08H14.23V1.8A.28.28,0,0,0,14,1.52Z"/></g><rect x="3.69" y="0.86" width="1.02" height="2.17" rx="0.51" ry="0.51" style="fill:url(#Degradado_sin_nombre_36)"/><g style="opacity:0.4"><path d="M4.2,1.11a.26.26,0,0,1,.26.26V2.53a.26.26,0,0,1-.52,0V1.37a.26.26,0,0,1,.26-.26m0-.25a.51.51,0,0,0-.51.51V2.53a.51.51,0,0,0,1,0V1.37A.51.51,0,0,0,4.2.86Z" style="fill:#f2f2f2"/></g><g style="opacity:0.6"><path d="M4.2,1.11a.26.26,0,0,1,.26.26V2.53a.26.26,0,0,1-.52,0V1.37a.26.26,0,0,1,.26-.26m0-.25a.51.51,0,0,0-.51.51V2.53a.51.51,0,0,0,1,0V1.37A.51.51,0,0,0,4.2.86Z"/></g><rect x="11.38" y="0.86" width="1.02" height="2.17" rx="0.51" ry="0.51" style="fill:url(#Degradado_sin_nombre_36-2)"/><g style="opacity:0.4"><path d="M11.89,1.11a.26.26,0,0,1,.26.26V2.53a.26.26,0,0,1-.52,0V1.37a.26.26,0,0,1,.26-.26m0-.25a.51.51,0,0,0-.51.51V2.53a.51.51,0,0,0,1,0V1.37a.51.51,0,0,0-.51-.51Z" style="fill:#f2f2f2"/></g><g style="opacity:0.6"><path d="M11.89,1.11a.26.26,0,0,1,.26.26V2.53a.26.26,0,0,1-.52,0V1.37a.26.26,0,0,1,.26-.26m0-.25a.51.51,0,0,0-.51.51V2.53a.51.51,0,0,0,1,0V1.37a.51.51,0,0,0-.51-.51Z"/></g><line x1="5.05" y1="11.67" x2="5.43" y2="4.71" style="fill:#991ed3;stroke:#b3b3b3;stroke-miterlimit:10;stroke-width:0.5px"/><line x1="11.01" y1="11.67" x2="10.51" y2="4.71" style="fill:#991ed3;stroke:#b3b3b3;stroke-miterlimit:10;stroke-width:0.5px"/><line x1="2.26" y1="6.26" x2="13.74" y2="6.26" style="fill:#991ed3;stroke:#b3b3b3;stroke-miterlimit:10;stroke-width:0.5px"/><line x1="1.91" y1="9.8" x2="14.09" y2="9.8" style="fill:#991ed3;stroke:#b3b3b3;stroke-miterlimit:10;stroke-width:0.5px"/><path d="M5.61,10.79A.74.74,0,0,1,5,10.48L4,9.08a.74.74,0,0,1,.18-1,.76.76,0,0,1,1,.18L5.8,9l5.1-3.44a.75.75,0,0,1,1,.2.73.73,0,0,1-.21,1L6,10.67A.75.75,0,0,1,5.61,10.79Z" style="fill:#39b54a"/><path d="M11.32,5.71h0a.49.49,0,0,1,.41.22.48.48,0,0,1,.07.37.45.45,0,0,1-.21.31L5.88,10.46a.43.43,0,0,1-.27.08.51.51,0,0,1-.41-.2l-1-1.4a.49.49,0,0,1,.11-.69.52.52,0,0,1,.29-.09.49.49,0,0,1,.4.21l.57.8.14.2.21-.14L11,5.79a.54.54,0,0,1,.28-.08m0-.25a.72.72,0,0,0-.42.13L5.8,9l-.57-.81a.77.77,0,0,0-.61-.31A.74.74,0,0,0,4,9.08l1,1.4a.74.74,0,0,0,.61.31A.75.75,0,0,0,6,10.67l5.71-3.85a.73.73,0,0,0,.21-1,.76.76,0,0,0-.62-.33Z" style="fill:url(#Degradado_sin_nombre_365)"/></svg>