<svg id="Capa_1" data-name="Capa 1" xmlns="http://www.w3.org/2000/svg" xmlns:xlink="http://www.w3.org/1999/xlink" viewBox="0 0 16 16"><defs><radialGradient id="Degradado_sin_nombre_2" cx="-195.67" cy="631.86" r="4.57" gradientTransform="matrix(1.56, 0.01, 0, -0.17, 311.91, 123.31)" gradientUnits="userSpaceOnUse"><stop offset="0"/><stop offset="1" stop-opacity="0"/></radialGradient><radialGradient id="Degradado_sin_nombre_3" cx="-369.94" cy="519.68" r="0.32" gradientTransform="matrix(0, 5.69, 1, 0, -505.63, 2120.25)" gradientUnits="userSpaceOnUse"><stop offset="0" stop-color="#181818"/><stop offset="1" stop-color="#181818" stop-opacity="0"/></radialGradient><radialGradient id="Degradado_sin_nombre_3-2" cx="-503.23" cy="452.32" r="0.32" gradientTransform="matrix(0, -5.69, -1, 0, 454.26, -2850.69)" xlink:href="#Degradado_sin_nombre_3"/><linearGradient id="Degradado_sin_nombre_4" x1="-277.96" y1="532.7" x2="-277.96" y2="533.61" gradientTransform="matrix(0, 2.84, 0.71, 0, -372.83, 804.31)" gradientUnits="userSpaceOnUse"><stop offset="0" stop-color="#181818" stop-opacity="0"/><stop offset="0.5" stop-color="#181818"/><stop offset="1" stop-color="#181818" stop-opacity="0"/></linearGradient><radialGradient id="Degradado_sin_nombre_18" cx="-424.64" cy="531.81" r="1.64" gradientTransform="matrix(-25.08, 0, 0, 30.79, -10629.48, -16368.62)" gradientUnits="userSpaceOnUse"><stop offset="0" stop-color="#f2f2f2"/><stop offset="1" stop-color="#ccc"/></radialGradient><linearGradient id="Degradado_sin_nombre_51" x1="1.46" y1="2.62" x2="14.63" y2="2.62" gradientTransform="translate(0.03 0)" gradientUnits="userSpaceOnUse"><stop offset="0" stop-color="#3689e6"/><stop offset="1" stop-color="#68b723"/></linearGradient><linearGradient id="Degradado_sin_nombre_6" x1="-272.46" y1="504.3" x2="-272.46" y2="498.52" gradientTransform="matrix(0, 2.73, 2.73, 0, -1360.68, 751.41)" gradientUnits="userSpaceOnUse"><stop offset="0" stop-color="#fff"/><stop offset="0.06" stop-color="#fff" stop-opacity="0.24"/><stop offset="0.95" stop-color="#fff" stop-opacity="0.16"/><stop offset="1" stop-color="#fff" stop-opacity="0.39"/></linearGradient><radialGradient id="Degradado_sin_nombre_45" cx="254.64" cy="-20.92" r="8.76" gradientTransform="matrix(0, 0.57, -0.48, 0, -2.04, -137.09)" gradientUnits="userSpaceOnUse"><stop offset="0" stop-color="#fff"/><stop offset="1" stop-color="#ededed"/></radialGradient><radialGradient id="Degradado_sin_nombre_45-2" cx="254.64" cy="-17.27" r="7.08" gradientTransform="translate(-138.24 18.34) rotate(0.33) scale(0.57 0.48)" xlink:href="#Degradado_sin_nombre_45"/><radialGradient id="Degradado_sin_nombre_45-3" cx="254.64" cy="-20.92" r="7.08" gradientTransform="translate(-138.24 18.34) rotate(0.33) scale(0.57 0.48)" xlink:href="#Degradado_sin_nombre_45"/><radialGradient id="Degradado_sin_nombre_45-4" cx="254.64" cy="-24.57" r="7.08" gradientTransform="translate(-138.24 18.34) rotate(0.33) scale(0.57 0.48)" xlink:href="#Degradado_sin_nombre_45"/><radialGradient id="Degradado_sin_nombre_45-5" cx="261.79" cy="-20.92" r="5.16" gradientTransform="translate(-138.24 18.34) rotate(0.33) scale(0.57 0.48)" xlink:href="#Degradado_sin_nombre_45"/><radialGradient id="Degradado_sin_nombre_45-6" cx="258.93" cy="-20.92" r="5.16" gradientTransform="translate(-138.24 18.34) rotate(0.33) scale(0.57 0.48)" xlink:href="#Degradado_sin_nombre_45"/><radialGradient id="Degradado_sin_nombre_45-7" cx="256.07" cy="-20.92" r="5.16" gradientTransform="translate(-138.24 18.34) rotate(0.33) scale(0.57 0.48)" xlink:href="#Degradado_sin_nombre_45"/><radialGradient id="Degradado_sin_nombre_45-8" cx="253.21" cy="-20.92" r="5.16" gradientTransform="translate(-138.24 18.34) rotate(0.33) scale(0.57 0.48)" xlink:href="#Degradado_sin_nombre_45"/><radialGradient id="Degradado_sin_nombre_45-9" cx="250.35" cy="-20.92" r="5.16" gradientTransform="translate(-138.24 18.34) rotate(0.33) scale(0.57 0.48)" xlink:href="#Degradado_sin_nombre_45"/><radialGradient id="Degradado_sin_nombre_45-10" cx="247.48" cy="-20.92" r="5.16" gradientTransform="translate(-138.24 18.34) rotate(0.33) scale(0.57 0.48)" xlink:href="#Degradado_sin_nombre_45"/></defs><title>com.github.calo001.luna_5</title><path id="path3041" d="M15.11,14.29c0,.43-3.19.76-7.12.74s-7.1-.39-7.1-.82,3.19-.76,7.11-.73,7.11.38,7.11.81Z" style="opacity:0.20000000298023224;isolation:isolate;fill:url(#Degradado_sin_nombre_2)"/><g id="g2036"><g id="g3712" style="opacity:0.4000000059604645"><rect id="rect2801" x="13.74" y="13.43" width="0.65" height="1.84" transform="translate(-0.37 28.33) rotate(-89.67)" style="fill:url(#Degradado_sin_nombre_3)"/><rect id="rect3696" x="1.62" y="13.36" width="0.65" height="1.84" transform="translate(-12.35 16.14) rotate(-89.67)" style="fill:url(#Degradado_sin_nombre_3-2)"/><rect id="rect3700" x="7.68" y="9.17" width="0.65" height="10.28" transform="translate(-6.36 22.23) rotate(-89.67)" style="fill:url(#Degradado_sin_nombre_4)"/></g></g><rect id="rect5505-21-3" x="1.38" y="1.01" width="13.31" height="13.31" rx="0.78" ry="0.78" transform="translate(0.33 15.65) rotate(-89.67)" style="fill:url(#Degradado_sin_nombre_18)"/><path d="M2.49,1H13.66a1,1,0,0,1,1,1V4.24a0,0,0,0,1,0,0H1.49a0,0,0,0,1,0,0V2a1,1,0,0,1,1-1Z" transform="translate(0.02 -0.05) rotate(0.33)" style="fill:url(#Degradado_sin_nombre_51)"/><rect id="rect6741-7" x="1.51" y="1.14" width="13.05" height="13.05" rx="0.65" ry="0.65" transform="translate(0.33 15.65) rotate(-89.67)" style="fill:none;stroke-linecap:round;stroke-linejoin:round;stroke-width:0.9999999403953552px;opacity:0.30000001192092896;isolation:isolate;stroke:url(#Degradado_sin_nombre_6)"/><rect id="rect5505-21-6" x="1.38" y="1.01" width="13.31" height="13.31" rx="0.78" ry="0.78" transform="translate(0.33 15.65) rotate(-89.67)" style="fill:none;stroke:#0e141f;stroke-linecap:round;stroke-linejoin:round;stroke-width:0.5px;opacity:0.5;isolation:isolate"/><rect x="4.52" y="3.38" width="7.02" height="11.5" transform="translate(-1.14 17.1) rotate(-89.67)" style="stroke:#b3b3b3;stroke-miterlimit:10;stroke-width:0.5px;fill:url(#Degradado_sin_nombre_45)"/><line x1="2.27" y1="10.85" x2="13.77" y2="10.91" style="stroke:#b3b3b3;stroke-miterlimit:10;stroke-width:0.5px;fill:url(#Degradado_sin_nombre_45-2)"/><line x1="2.28" y1="9.09" x2="13.78" y2="9.16" style="stroke:#b3b3b3;stroke-miterlimit:10;stroke-width:0.5px;fill:url(#Degradado_sin_nombre_45-3)"/><line x1="2.29" y1="7.34" x2="13.79" y2="7.4" style="stroke:#b3b3b3;stroke-miterlimit:10;stroke-width:0.5px;fill:url(#Degradado_sin_nombre_45-4)"/><line x1="12.16" y1="5.64" x2="12.12" y2="12.66" style="stroke:#b3b3b3;stroke-miterlimit:10;stroke-width:0.5px;fill:url(#Degradado_sin_nombre_45-5)"/><line x1="10.51" y1="5.63" x2="10.47" y2="12.65" style="stroke:#b3b3b3;stroke-miterlimit:10;stroke-width:0.5px;fill:url(#Degradado_sin_nombre_45-6)"/><line x1="8.87" y1="5.62" x2="8.83" y2="12.64" style="stroke:#b3b3b3;stroke-miterlimit:10;stroke-width:0.5px;fill:url(#Degradado_sin_nombre_45-7)"/><line x1="7.23" y1="5.61" x2="7.19" y2="12.63" style="stroke:#b3b3b3;stroke-miterlimit:10;stroke-width:0.5px;fill:url(#Degradado_sin_nombre_45-8)"/><line x1="5.59" y1="5.6" x2="5.55" y2="12.62" style="stroke:#b3b3b3;stroke-miterlimit:10;stroke-width:0.5px;fill:url(#Degradado_sin_nombre_45-9)"/><line x1="3.94" y1="5.59" x2="3.9" y2="12.61" style="stroke:#b3b3b3;stroke-miterlimit:10;stroke-width:0.5px;fill:url(#Degradado_sin_nombre_45-10)"/></svg>