<svg id="Capa_1" data-name="Capa 1" xmlns="http://www.w3.org/2000/svg" xmlns:xlink="http://www.w3.org/1999/xlink" viewBox="0 0 48 48"><defs><radialGradient id="Degradado_sin_nombre_2" cx="-139.84" cy="462.37" r="14.36" gradientTransform="matrix(1.56, 0, 0, -0.17, 241.64, 122.12)" gradientUnits="userSpaceOnUse"><stop offset="0"/><stop offset="1" stop-opacity="0"/></radialGradient><radialGradient id="Degradado_sin_nombre_3" cx="-260.09" cy="491.18" r="1.02" gradientTransform="matrix(5.69, 0, 0, -1, 1521.38, 535)" gradientUnits="userSpaceOnUse"><stop offset="0" stop-color="#181818"/><stop offset="1" stop-color="#181818" stop-opacity="0"/></radialGradient><radialGradient id="Degradado_sin_nombre_3-2" cx="-354.21" cy="481.82" r="1.02" gradientTransform="matrix(-5.69, 0, 0, 1, -2009.38, -438)" xlink:href="#Degradado_sin_nombre_3"/><linearGradient id="Degradado_sin_nombre_4" x1="-189.7" y1="491.62" x2="-189.7" y2="494.48" gradientTransform="matrix(2.84, 0, 0, -0.71, 563.16, 396)" gradientUnits="userSpaceOnUse"><stop offset="0" stop-color="#181818" stop-opacity="0"/><stop offset="0.5" stop-color="#181818"/><stop offset="1" stop-color="#181818" stop-opacity="0"/></linearGradient><radialGradient id="Degradado_sin_nombre_18" cx="-297.72" cy="528.7" r="5.15" gradientTransform="matrix(0, 25.08, 30.79, 0, -16256.14, 7447.56)" gradientUnits="userSpaceOnUse"><stop offset="0" stop-color="#f2f2f2"/><stop offset="1" stop-color="#ccc"/></radialGradient><linearGradient id="Degradado_sin_nombre_51" x1="3.3" y1="7.03" x2="44.73" y2="7.03" gradientUnits="userSpaceOnUse"><stop offset="0" stop-color="#3689e6"/><stop offset="1" stop-color="#68b723"/></linearGradient><linearGradient id="Degradado_sin_nombre_6" x1="-185.82" y1="504.54" x2="-185.82" y2="488.5" gradientTransform="matrix(2.73, 0, 0, -2.73, 531.24, 1378.24)" gradientUnits="userSpaceOnUse"><stop offset="0" stop-color="#fff"/><stop offset="0.06" stop-color="#fff" stop-opacity="0.24"/><stop offset="0.95" stop-color="#fff" stop-opacity="0.16"/><stop offset="1" stop-color="#fff" stop-opacity="0.39"/></linearGradient><radialGradient id="Degradado_sin_nombre_45" cx="187.89" cy="16.69" r="27.56" gradientTransform="translate(-83.88 19.46) scale(0.57 0.48)" gradientUnits="userSpaceOnUse"><stop offset="0" stop-color="#fff"/><stop offset="1" stop-color="#ededed"/></radialGradient><radialGradient id="Degradado_sin_nombre_45-2" cx="187.89" cy="28.16" r="22.28" xlink:href="#Degradado_sin_nombre_45"/><radialGradient id="Degradado_sin_nombre_45-3" cx="187.89" cy="16.69" r="22.28" xlink:href="#Degradado_sin_nombre_45"/><radialGradient id="Degradado_sin_nombre_45-4" cx="187.89" cy="5.22" r="22.28" xlink:href="#Degradado_sin_nombre_45"/><radialGradient id="Degradado_sin_nombre_45-5" cx="210.39" cy="16.69" r="16.22" xlink:href="#Degradado_sin_nombre_45"/><radialGradient id="Degradado_sin_nombre_45-6" cx="201.39" cy="16.69" r="16.22" xlink:href="#Degradado_sin_nombre_45"/><radialGradient id="Degradado_sin_nombre_45-7" cx="192.39" cy="16.69" r="16.22" xlink:href="#Degradado_sin_nombre_45"/><radialGradient id="Degradado_sin_nombre_45-8" cx="183.39" cy="16.69" r="16.22" xlink:href="#Degradado_sin_nombre_45"/><radialGradient id="Degradado_sin_nombre_45-9" cx="174.39" cy="16.69" r="16.22" xlink:href="#Degradado_sin_nombre_45"/><radialGradient id="Degradado_sin_nombre_45-10" cx="165.39" cy="16.69" r="16.22" xlink:href="#Degradado_sin_nombre_45"/></defs><title>com.github.calo001.luna_2</title><path id="path3041" d="M46.36,43.61c0,1.35-10,2.44-22.36,2.44S1.65,45,1.64,43.61s10-2.44,22.36-2.44,22.35,1.1,22.36,2.44Z" style="opacity:0.20000000298023224;isolation:isolate;fill:url(#Degradado_sin_nombre_2)"/><g id="g2036"><g id="g3712" style="opacity:0.4000000059604645"><rect id="rect2801" x="40.17" y="42.8" width="5.78" height="2.03" style="fill:url(#Degradado_sin_nombre_3)"/><rect id="rect3696" x="2.05" y="42.8" width="5.78" height="2.03" style="fill:url(#Degradado_sin_nombre_3-2)"/><rect id="rect3700" x="7.83" y="42.8" width="32.35" height="2.03" style="fill:url(#Degradado_sin_nombre_4)"/></g></g><rect id="rect5505-21-3" x="3.07" y="1.95" width="41.87" height="41.87" rx="2.46" ry="2.46" style="fill:url(#Degradado_sin_nombre_18)"/><path d="M6.3,1.95H41.73a3,3,0,0,1,3,3v7.16a0,0,0,0,1,0,0H3.3a0,0,0,0,1,0,0V4.95A3,3,0,0,1,6.3,1.95Z" style="fill:url(#Degradado_sin_nombre_51)"/><rect id="rect6741-7" x="3.47" y="2.35" width="41.06" height="41.06" rx="2.03" ry="2.03" style="fill:none;stroke-linecap:round;stroke-linejoin:round;stroke-width:0.9999999403953552px;opacity:0.30000001192092896;isolation:isolate;stroke:url(#Degradado_sin_nombre_6)"/><rect id="rect5505-21-6" x="3.07" y="1.95" width="41.87" height="41.87" rx="2.44" ry="2.44" style="fill:none;stroke:#0e141f;stroke-linecap:round;stroke-linejoin:round;opacity:0.5;isolation:isolate"/><rect x="5.91" y="16.44" width="36.18" height="22.09" style="stroke:#b3b3b3;stroke-miterlimit:10;fill:url(#Degradado_sin_nombre_45)"/><line x1="5.91" y1="33.01" x2="42.09" y2="33.01" style="stroke:#b3b3b3;stroke-miterlimit:10;fill:url(#Degradado_sin_nombre_45-2)"/><line x1="5.91" y1="27.49" x2="42.09" y2="27.49" style="stroke:#b3b3b3;stroke-miterlimit:10;fill:url(#Degradado_sin_nombre_45-3)"/><line x1="5.91" y1="21.97" x2="42.09" y2="21.97" style="stroke:#b3b3b3;stroke-miterlimit:10;fill:url(#Degradado_sin_nombre_45-4)"/><line x1="36.92" y1="16.44" x2="36.92" y2="38.53" style="stroke:#b3b3b3;stroke-miterlimit:10;fill:url(#Degradado_sin_nombre_45-5)"/><line x1="31.75" y1="16.44" x2="31.75" y2="38.53" style="stroke:#b3b3b3;stroke-miterlimit:10;fill:url(#Degradado_sin_nombre_45-6)"/><line x1="26.58" y1="16.44" x2="26.58" y2="38.53" style="stroke:#b3b3b3;stroke-miterlimit:10;fill:url(#Degradado_sin_nombre_45-7)"/><line x1="21.42" y1="16.44" x2="21.42" y2="38.53" style="stroke:#b3b3b3;stroke-miterlimit:10;fill:url(#Degradado_sin_nombre_45-8)"/><line x1="16.25" y1="16.44" x2="16.25" y2="38.53" style="stroke:#b3b3b3;stroke-miterlimit:10;fill:url(#Degradado_sin_nombre_45-9)"/><line x1="11.08" y1="16.44" x2="11.08" y2="38.53" style="stroke:#b3b3b3;stroke-miterlimit:10;fill:url(#Degradado_sin_nombre_45-10)"/></svg>